<?xml version="1.0" encoding="iso-8859-1"?>
<!-- Generator: Adobe Illustrator 19.0.0, SVG Export Plug-In . SVG Version: 6.00 Build 0)  -->
<svg version="1.1" id="Layer_1" xmlns="http://www.w3.org/2000/svg" xmlns:xlink="http://www.w3.org/1999/xlink" x="0px" y="0px"
	 viewBox="0 0 469.335 469.335" style="enable-background:new 0 0 469.335 469.335;" xml:space="preserve">
<g>
	<g>
		<path d="M464.761,1.918c-3.385-2.365-7.813-2.552-11.385-0.51l-448,256c-3.656,2.083-5.74,6.125-5.323,10.313
			c0.417,4.188,3.25,7.74,7.24,9.063l133.784,44.591l51.57,140.961c1.552,4.24,5.583,7,10.01,7c0.406,0,0.823-0.021,1.229-0.073
			c2.882-0.331,5.307-1.881,7.021-4.031l0.104,0.083l75.891-95.328l104.391,34.797c1.104,0.375,2.24,0.552,3.375,0.552
			c1.917,0,3.823-0.521,5.5-1.531c2.677-1.604,4.51-4.302,5.021-7.385l64-384C469.866,8.355,468.147,4.272,464.761,1.918z
			 M36.678,264.095L391.616,61.266L146.532,300.714L36.678,264.095z M209.095,329.314c-1.094,1.49-1.792,3.229-2.01,5.063
			l-9.635,78.979l-35.729-97.656l208.615-203.813L209.095,329.314z M217.821,422.506l8.858-72.595l38.673,12.891L217.821,422.506z
			 M386.199,380.605l-151.195-50.398L440.863,52.594L386.199,380.605z"/>
	</g>
</g>
<g>
</g>
<g>
</g>
<g>
</g>
<g>
</g>
<g>
</g>
<g>
</g>
<g>
</g>
<g>
</g>
<g>
</g>
<g>
</g>
<g>
</g>
<g>
</g>
<g>
</g>
<g>
</g>
<g>
</g>
</svg>
