<?xml version="1.0" encoding="iso-8859-1"?>
<!-- Generator: Adobe Illustrator 19.0.0, SVG Export Plug-In . SVG Version: 6.00 Build 0)  -->
<svg version="1.1" id="Capa_1" xmlns="http://www.w3.org/2000/svg" xmlns:xlink="http://www.w3.org/1999/xlink" x="0px" y="0px"
	 viewBox="0 0 512 512" style="enable-background:new 0 0 512 512;" xml:space="preserve">
<g>
	<g>
		<path d="M0,0v512h512V0H0z M160.661,482H30V351.328h130.661V482z M160.661,321.328H30V190.661h130.661V321.328z M160.661,160.661
			H30V30h130.661V160.661z M321.328,482H190.661V351.328h130.667V482z M321.328,321.328H190.661V190.661h130.667V321.328z
			 M321.328,160.661H190.661V30h130.667V160.661z M482,482H351.328V351.328H482V482z M482,321.328H351.328V190.661H482V321.328z
			 M482,160.661H351.328V30H482V160.661z"/>
	</g>
</g>
<g>
</g>
<g>
</g>
<g>
</g>
<g>
</g>
<g>
</g>
<g>
</g>
<g>
</g>
<g>
</g>
<g>
</g>
<g>
</g>
<g>
</g>
<g>
</g>
<g>
</g>
<g>
</g>
<g>
</g>
</svg>
